<svg height="512pt" viewBox="0 -18 512 511" width="512pt" xmlns="http://www.w3.org/2000/svg"><path d="m510.101562 81.355469c1.222657-1.375 1.898438-3.148438 1.898438-4.988281v-68.367188c0-3.480469-2.394531-6.503906-5.785156-7.300781-3.386719-.7968752-6.878906.84375-8.429688 3.960937-17.054687 34.28125-45.949218 64.003906-83.898437 86.453125 6.945312-23.800781.328125-49.695312-17.589844-67.28125-3.800781-3.730469-8.941406-5.691406-14.339844-5.433593-26.875 1.289062-50.4375 18.351562-60.035156 43.46875-8.019531 20.992187-4.984375 44.355468 7.453125 62.480468-23.609375 5.359375-48.257812 8.109375-73.375 8.109375-25.183594 0-49.839844-2.769531-73.378906-8.101562 12.441406-18.128907 15.476562-41.492188 7.453125-62.488281-9.59375-25.117188-33.160157-42.179688-60.035157-43.46875-5.390624-.265626-10.539062 1.703124-14.339843 5.433593-17.925781 17.59375-24.539063 43.507813-17.578125 67.320313-8.359375-4.964844-16.378906-10.351563-24.015625-16.144532-3.300781-2.503906-8.003907-1.859374-10.507813 1.441407s-1.859375 8.003906 1.441406 10.507812c51.414063 39.011719 119.230469 60.5 190.957032 60.5 56.054687 0 109.960937-13.128906 155.890625-37.96875 35.785156-19.355469 64.769531-44.667969 85.109375-74.105469v38.101563c-9.492188 10.414063-20.15625 20.296875-31.738282 29.414063-28.789062 22.664062-61.878906 39.640624-96.679687 50.941406-.015625.003906-.03125.011718-.046875.019531-35.253906 11.441406-73.324219 17.441406-112.535156 17.441406-39.207032 0-77.273438-6-112.53125-17.441406-.015625-.003906-.03125-.015625-.046875-.019531-34.8125-11.261719-67.898438-28.28125-96.679688-50.941406-11.582031-9.117188-22.246093-19-31.738281-29.414063v-38.140625c7.65625 11.058594 16.578125 21.589844 26.691406 31.496094 2.960938 2.898437 7.710938 2.847656 10.609375-.109375 2.894531-2.960938 2.847657-7.710938-.113281-10.605469-16.003906-15.679688-28.78125-32.996094-37.972656-51.464844-1.550782-3.117187-5.042969-4.753906-8.429688-3.960937-3.390625.796875-5.785156 3.820312-5.785156 7.300781v68.367188c0 1.839843.675781 3.613281 1.898438 4.988281 10.546874 11.839843 22.511718 23.054687 35.5625 33.332031 12.273437 9.660156 25.382812 18.402344 39.183593 26.207031-5.800781 3.375-11.101562 7.605469-15.707031 12.59375-18.242188 19.75-23.058594 48.441407-12.28125 73.089844 2.148438 4.90625 6.28125 8.726563 11.34375 10.476563 25.140625 8.6875 53.839844 1.492187 71.886719-18.046876 11.980469-12.976562 18.3125-30.113281 17.917969-47.53125 33.621093 9.734376 69.4375 14.824219 106.195312 14.824219s72.574219-5.089843 106.195312-14.824219c-.398437 17.417969 5.933594 34.554688 17.917969 47.53125 17.984375 19.476563 46.84375 26.699219 71.882813 18.046876 5.0625-1.75 9.195312-5.570313 11.34375-10.476563 10.78125-24.648437 5.960937-53.339844-12.28125-73.089844-4.601563-4.984375-9.90625-9.21875-15.707032-12.59375 13.800782-7.804687 26.914063-16.542969 39.183594-26.207031 13.054688-10.273438 25.019532-21.488281 35.566406-33.332031zm-383.890624-46.820313c.796874-.78125 1.9375-1.199218 3.113281-1.152344 20.921875 1.003907 39.269531 14.285157 46.738281 33.835938 6.675781 17.476562 3.511719 37.0625-7.925781 51.515625l-20.089844-52.59375c-1.480469-3.871094-5.816406-5.808594-9.683594-4.328125-3.871093 1.476562-5.808593 5.8125-4.328125 9.683594l16.71875 43.769531c-10.488281-3.597656-20.6875-7.726563-30.476562-12.371094-2.632813-3.675781-4.785156-7.675781-6.40625-11.917969-7.480469-19.585937-2.636719-41.742187 12.339844-56.441406zm209.726562 32.683594c7.46875-19.550781 25.816406-32.832031 46.738281-33.835938.070313-.003906.140625-.003906.210938-.003906 1.09375 0 2.152343.421875 2.902343 1.15625 14.976563 14.699219 19.820313 36.855469 12.339844 56.441406-1.621094 4.242188-3.773437 8.242188-6.40625 11.917969-9.789062 4.644531-19.988281 8.773438-30.476562 12.371094l16.71875-43.769531c1.476562-3.871094-.460938-8.207032-4.328125-9.683594-3.871094-1.480469-8.207031.457031-9.683594 4.328125l-20.09375 52.59375c-11.433594-14.453125-14.597656-34.039063-7.921875-51.515625zm-201.5 99.445312c1.863281 15.289063-3.0625 30.789063-13.570312 42.164063-14.035157 15.199219-36.425782 20.800781-55.964844 14.046875-1.117188-.386719-2.027344-1.226562-2.5-2.308594-8.394532-19.191406-4.644532-41.527344 9.554687-56.902344 5.871094-6.359374 13.191407-11.15625 21.304688-13.988281 6.183593 3.042969 12.46875 5.882813 18.828125 8.539063l-28.65625 31.027344c-2.808594 3.042968-2.621094 7.789062.421875 10.597656 2.964843 2.738281 7.804687 2.605468 10.597656-.417969l32.644531-35.351563c.914063.332032 6.773438 2.402344 7.339844 2.59375zm284.300781-16.988281c8.113281 2.832031 15.433594 7.628907 21.304688 13.988281 14.199219 15.375 17.949219 37.710938 9.554687 56.902344-.472656 1.082032-1.382812 1.921875-2.496094 2.308594-19.566406 6.769531-41.929687 1.152344-55.96875-14.046875-10.507812-11.375-15.433593-26.875-13.570312-42.164063 2.457031-.835937 4.902344-1.707031 7.339844-2.59375 0 0 32.632812 35.339844 32.644531 35.347657 2.734375 2.964843 7.574219 3.214843 10.597656.421875 3.042969-2.808594 3.230469-7.554688.417969-10.597656l-28.652344-31.027344c6.359375-2.65625 12.640625-5.5 18.828125-8.539063zm0 0"/><path d="m76.644531 375.871094c-5.800781 3.375-11.101562 7.605468-15.707031 12.59375-18.242188 19.75-23.058594 48.441406-12.28125 73.089844 2.148438 4.90625 6.28125 8.726562 11.34375 10.472656 25.140625 8.691406 53.839844 1.5 71.886719-18.042969 11.980469-12.976563 18.3125-30.113281 17.917969-47.53125 33.621093 9.734375 69.4375 14.824219 106.195312 14.824219s72.574219-5.089844 106.195312-14.824219c-.398437 17.417969 5.9375 34.554687 17.917969 47.53125 18.027344 19.519531 46.785157 26.722656 71.886719 18.042969 5.0625-1.75 9.195312-5.566406 11.339844-10.472656 10.78125-24.648438 5.960937-53.339844-12.277344-73.089844-4.605469-4.988282-9.90625-9.21875-15.710938-12.59375 13.800782-7.804688 26.914063-16.542969 39.1875-26.207032 13.050782-10.273437 25.015626-21.488281 35.5625-33.332031 1.222657-1.375 1.898438-3.148437 1.898438-4.988281v-68.367188c0-3.480468-2.394531-6.503906-5.785156-7.300781-3.386719-.800781-6.878906.84375-8.429688 3.960938-15.117187 30.378906-40.167968 57.789062-72.441406 79.257812-3.726562 2.480469-7.554688 4.867188-11.453125 7.171875 6.933594-23.792968.316406-49.679687-17.59375-67.257812-3.800781-3.730469-8.949219-5.695313-14.339844-5.433594-26.875 1.289062-50.4375 18.351562-60.035156 43.46875-8.011719 20.976562-4.992187 44.316406 7.421875 62.433594-6.09375 1.386718-12.25 2.625-18.46875 3.65625-4.085938.679687-6.847656 4.542968-6.167969 8.628906.679688 4.085938 4.550781 6.851562 8.628907 6.167969 42.394531-7.070313 84.285156-22.375 120.316406-46.34375 25.804687-17.167969 47.324218-37.976563 63.34375-61.089844v38.167969c-9.492188 10.410156-20.15625 20.296875-31.738282 29.414062-28.691406 22.582032-61.882812 39.917969-96.679687 50.9375-.015625.003906-.027344.011719-.042969.019532-35.253906 11.441406-73.324218 17.441406-112.539062 17.441406-74.511719 0-150.265625-21.957032-209.257813-68.398438-11.582031-9.121094-22.246093-19.003906-31.738281-29.414062v-38.105469c20.339844 29.4375 49.324219 54.75 85.113281 74.101563 43.808594 23.695312 93.375 35.949218 143.035157 37.738281 13.074218.472656 26.695312.210937 39.941406-.804688 4.128906-.316406 7.222656-3.921875 6.902344-8.050781-.3125-4.128906-3.910157-7.226562-8.050782-6.90625-8.582031.660156-17.308594.992188-25.941406.992188-25.117188 0-49.765625-2.75-73.371094-8.105469 12.4375-18.125 15.46875-41.488281 7.449219-62.480469-9.59375-25.117188-33.160156-42.179688-60.035156-43.46875-5.390625-.261719-10.539063 1.703125-14.339844 5.433594-17.917969 17.585937-24.53125 43.480468-17.589844 67.285156-37.949219-22.453125-66.839843-52.175781-83.898437-86.457031-1.550782-3.117188-5.042969-4.757813-8.429688-3.960938-3.390625.796875-5.785156 3.820313-5.785156 7.300781v68.367188c0 1.839844.675781 3.613281 1.898438 4.988281 10.546874 11.84375 22.511718 23.058594 35.5625 33.332031 12.273437 9.660157 25.382812 18.402344 39.183593 26.207032zm259.292969-73.671875c7.46875-19.554688 25.816406-32.835938 46.738281-33.839844.070313-.003906.140625-.003906.210938-.003906 1.09375 0 2.152343.421875 2.902343 1.15625 14.976563 14.703125 19.820313 36.855469 12.339844 56.441406-1.617187 4.226563-3.757812 8.214844-6.378906 11.875-9.800781 4.648437-19.996094 8.777344-30.492188 12.378906l16.707032-43.734375c1.476562-3.871094-.460938-8.207031-4.328125-9.683594-3.871094-1.480468-8.207031.460938-9.683594 4.328126l-20.089844 52.59375c-11.4375-14.453126-14.601562-34.039063-7.925781-51.511719zm82.800781 82.453125c8.113281 2.832031 15.433594 7.628906 21.304688 13.988281 14.199219 15.375 17.949219 37.710937 9.554687 56.902344-.472656 1.082031-1.382812 1.921875-2.5 2.308593-19.566406 6.769532-41.917968 1.164063-55.964844-14.046874-10.507812-11.375-15.433593-26.875-13.570312-42.164063.574219-.195313 5.46875-1.914063 7.339844-2.59375l32.644531 35.347656c2.777344 3.011719 7.589844 3.199219 10.597656.421875 3.042969-2.808594 3.230469-7.554687.417969-10.597656l-28.652344-31.027344c6.359375-2.65625 12.644532-5.5 18.828125-8.539062zm-284.300781 16.988281c1.863281 15.289063-3.0625 30.789063-13.570312 42.164063-14.027344 15.191406-36.4375 20.796874-55.964844 14.046874-1.117188-.386718-2.027344-1.226562-2.5-2.308593-8.394532-19.191407-4.644532-41.527344 9.554687-56.902344 5.871094-6.359375 13.191407-11.15625 21.304688-13.988281 6.183593 3.042968 12.46875 5.882812 18.828125 8.539062l-28.65625 31.027344c-2.808594 3.042969-2.621094 7.789062.421875 10.597656 3.003906 2.773438 7.828125 2.578125 10.597656-.417968l32.644531-35.351563c.917969.335937 5.808594 2.074219 7.339844 2.59375zm-8.226562-132.128906c.796874-.78125 1.960937-1.195313 3.113281-1.152344 20.921875 1.003906 39.269531 14.285156 46.738281 33.835937 6.675781 17.476563 3.511719 37.0625-7.925781 51.515626l-20.089844-52.59375c-1.480469-3.867188-5.816406-5.808594-9.683594-4.328126-3.871093 1.476563-5.808593 5.8125-4.328125 9.683594l16.71875 43.769532c-10.488281-3.597657-20.6875-7.726563-30.476562-12.371094-2.632813-3.675782-4.785156-7.675782-6.40625-11.914063-7.480469-19.589843-2.636719-41.742187 12.339844-56.445312zm0 0"/></svg>